<svg version="1.1" viewBox="0.0 0.0 196.93700787401573 122.1994750656168" fill="none" stroke="none" stroke-linecap="square" stroke-miterlimit="10" xmlns:xlink="http://www.w3.org/1999/xlink" xmlns="http://www.w3.org/2000/svg"><clipPath id="p.0"><path d="m0 0l196.93701 0l0 122.19948l-196.93701 0l0 -122.19948z" clip-rule="nonzero"/></clipPath><g clip-path="url(#p.0)"><path fill="#000000" fill-opacity="0.0" d="m0 0l196.93701 0l0 122.19948l-196.93701 0z" fill-rule="evenodd"/><path fill="#a4c2f4" d="m59.081364 15.52443l0 0c0 -7.392788 5.993038 -13.385827 13.38583 -13.385827l0 0c3.5501404 0 6.9548798 1.4102883 9.46521 3.920618c2.5103302 2.5103292 3.9206161 5.9150667 3.9206161 9.465209l0 0c0 7.392787 -5.993042 13.385827 -13.385826 13.385827l0 0c-7.3927917 0 -13.38583 -5.99304 -13.38583 -13.385827z" fill-rule="evenodd"/><path fill="#a4c2f4" d="m107.08137 15.52443l0 0c0 -7.392788 5.9930344 -13.385827 13.385826 -13.385827l0 0c3.5501404 0 6.9548798 1.4102883 9.46521 3.920618c2.5103302 2.5103292 3.9206085 5.9150667 3.9206085 9.465209l0 0c0 7.392787 -5.9930344 13.385827 -13.3858185 13.385827l0 0c-7.3927917 0 -13.385826 -5.99304 -13.385826 -13.385827z" fill-rule="evenodd"/><path fill="#93c47d" d="m196.30956 69.97195l0 -56.724407l-18.739975 18.907948l0 19.076492l-18.907013 0l-18.573486 18.739967z" fill-rule="evenodd"/><path fill="#93c47d" d="m-0.0011139108 71.25197l0 -56.72441l18.907948 18.907946l0 18.908516l18.908516 0l18.907948 18.907948z" fill-rule="evenodd"/><path fill="#c9daf8" d="m112.97059 8.282974l0 0c2.9745102 -4.574831 9.09446 -5.8721476 13.669296 -2.8976378c4.5748215 2.9745097 5.872139 9.09446 2.8976364 13.669292l0 0c-0.26023865 -3.878703 -2.3314514 -7.4085245 -5.5905533 -9.527559c-3.2591019 -2.1190357 -7.325691 -2.5799546 -10.976379 -1.2440948z" fill-rule="evenodd"/><path fill="#b6d7a8" d="m30.721785 53.013393l0 0c0 -7.468315 6.054266 -13.522579 13.522581 -13.522579l103.72649 0c3.5864105 0 7.02594 1.4246941 9.561905 3.9606705c2.5359802 2.5359764 3.960678 5.975498 3.960678 9.561909l0 54.088696c0 7.468315 -6.0542603 13.522583 -13.522583 13.522583l-103.72649 0c-7.468315 0 -13.522581 -6.054268 -13.522581 -13.522583z" fill-rule="evenodd"/><path fill="#c9daf8" d="m65.2367 8.550369l0 0c2.9745102 -4.574831 9.09446 -5.8721476 13.669289 -2.8976378c4.574829 2.9745097 5.8721466 9.09446 2.8976364 13.669292l0 0c-0.26023102 -3.878703 -2.3314514 -7.4085245 -5.5905457 -9.527559c-3.2591019 -2.1190357 -7.325691 -2.5799546 -10.976379 -1.2440948z" fill-rule="evenodd"/><path fill="#93c47d" d="m43.997375 28.050138l0 0c0 -7.468313 6.054264 -13.522579 13.522579 -13.522579l75.34854 0c3.5864105 0 7.0259247 1.424696 9.561905 3.9606724c2.5359802 2.5359745 3.960678 5.9754963 3.960678 9.561907l0 54.0887c0 7.468315 -6.0542755 13.522575 -13.522583 13.522575l-75.34854 0l0 0c-7.468315 0 -13.522579 -6.0542603 -13.522579 -13.522575z" fill-rule="evenodd"/><path fill="#b6d7a8" d="m51.6063 30.430447l0 0c0 -6.282421 5.092907 -11.375328 11.375328 -11.375328l69.06036 0c3.016922 0 5.9102936 1.1984673 8.043579 3.3317566c2.1332855 2.1332874 3.3317566 5.0266457 3.3317566 8.043571l0 45.50131c0 6.282425 -5.092911 11.375328 -11.375336 11.375328l-69.06036 0l0 0c-6.282421 0 -11.375328 -5.092903 -11.375328 -11.375328z" fill-rule="evenodd"/><path fill="#93c47d" d="m51.33858 33.708878l0 0c0 -5.9810295 4.848583 -10.829613 10.829613 -10.829613l67.09668 0c2.8721924 0 5.6267395 1.140974 7.6576843 3.1719208c2.03096 2.0309467 3.1719208 4.7854996 3.1719208 7.657692l0 43.317154c0 5.9810257 -4.848572 10.829613 -10.829605 10.829613l-67.09668 0c-5.9810295 0 -10.829613 -4.848587 -10.829613 -10.829613z" fill-rule="evenodd"/></g></svg>